# xmcd
#
# Track frame offsets:
#	150
#	29407
#	49338
#	63840
#	92936
#	106829
#	126521
#	137910
#	161456
#	189600
#	199330
#	213832
#	242527
#	289125
#
# Disc length: 4565 seconds
#
# Revision: 1
# Processed by: cddbd v1.4PL0 Copyright (c) Steve Scherf et al.
# Submitted via: EasyCDDAExtractor 4.6.9.1
#
DISCID=d211d30e
DTITLE=Led Zeppelin - BBC Sessions CD One
DYEAR=1997
DGENRE=blues
TTITLE0=You Shook Me
TTITLE1=I Can't Quit You Baby
TTITLE2=Communication Breakdown
TTITLE3=Dazed And Confused
TTITLE4=The Girl I Love She Got Long Black Wavy Hair
TTITLE5=What Is And What Should Never Be
TTITLE6=Communication Breakdown
TTITLE7=Travelling Riverside Blues
TTITLE8=Whole Lotta Love
TTITLE9=Somethin' Else
TTITLE10=Communication Breakdown
TTITLE11=I Can't Quit You Baby
TTITLE12=You Shook Me
TTITLE13=How Many More Times
EXTD=
EXTT0=
EXTT1=
EXTT2=
EXTT3=
EXTT4=
EXTT5=
EXTT6=
EXTT7=
EXTT8=
EXTT9=
EXTT10=
EXTT11=
EXTT12=
EXTT13=
PLAYORDER=
